<svg viewBox="0 0 100 100" xmlns="http://www.w3.org/2000/svg">
  <!-- Background -->
  <rect x="0" y="0" width="100" height="100" fill="#191970"/>
  <!-- Moon -->
  <path d="M60 20 A 20 20 0 1 1 40 40 A 15 15 0 1 0 60 20 Z" fill="#F0E68C"/>
  <!-- Stars -->
  <polygon points="20,20 22,25 27,25 23,28 25,33 20,30 15,33 17,28 13,25 18,25" fill="#FFFFFF" transform="scale(0.5) translate(20,20)"/>
  <polygon points="80,60 82,65 87,65 83,68 85,73 80,70 75,73 77,68 73,65 78,65" fill="#FFFFFF" transform="scale(0.5) translate(100,100)"/>
</svg>
